<svg width="512" height="512" viewBox="0 0 512 512" fill="none" xmlns="http://www.w3.org/2000/svg">
<path d="M413.198 25.2522C471.339 58.6527 512.404 127.928 511.997 195.141C511.997 261.942 470.526 326.269 426.615 376.164C383.111 426.058 337.168 461.933 283.499 485.849C229.83 510.178 168.03 522.961 125.746 499.869C83.4616 476.777 60.2865 417.811 37.9246 365.03C15.5627 311.837 -5.57947 265.241 1.3324 222.769C7.83768 180.297 42.8036 142.36 81.4287 106.073C120.054 69.3739 163.151 33.9116 221.699 14.5311C280.653 -4.84945 355.464 -8.14827 413.198 25.2522Z" fill="#F43F5E"/>
<path d="M168.002 261.501C168.002 259.335 168.429 257.189 169.258 255.187C170.087 253.185 171.303 251.366 172.835 249.834C174.367 248.302 176.186 247.087 178.188 246.257C180.19 245.428 182.335 245.001 184.502 245.001C186.669 245.001 188.814 245.428 190.816 246.257C192.818 247.087 194.637 248.302 196.169 249.834C197.701 251.366 198.917 253.185 199.746 255.187C200.575 257.189 201.002 259.335 201.002 261.501V327.501C201.002 331.877 199.264 336.074 196.169 339.169C193.075 342.263 188.878 344.001 184.502 344.001C180.126 344.001 175.929 342.263 172.835 339.169C169.74 336.074 168.002 331.877 168.002 327.501V261.501ZM212.002 259.664V319.394C212 323.483 213.137 327.491 215.286 330.969C217.435 334.446 220.511 337.257 224.168 339.084L224.718 339.359C230.822 342.41 237.551 343.999 244.375 344.001H303.951C309.039 344.003 313.97 342.242 317.905 339.017C321.84 335.792 324.536 331.302 325.533 326.313L338.733 260.313C339.371 257.122 339.293 253.829 338.504 250.671C337.716 247.514 336.236 244.57 334.173 242.053C332.11 239.537 329.514 237.509 326.572 236.116C323.63 234.724 320.416 234.002 317.162 234.001H278.002V190.001C278.002 184.167 275.684 178.571 271.558 174.445C267.432 170.319 261.837 168.001 256.002 168.001C253.085 168.001 250.287 169.16 248.224 171.223C246.161 173.286 245.002 176.084 245.002 179.001V186.338C245.002 195.859 241.914 205.122 236.202 212.738L220.802 233.264C215.09 240.881 212.002 250.144 212.002 259.664V259.664Z" fill="white"/>
</svg>
