<svg width="512" height="512" viewBox="0 0 512 512" fill="none" xmlns="http://www.w3.org/2000/svg">
<path d="M469.483 152.358C501.85 215.253 513.987 264.783 511.739 326.892C509.492 389.002 492.859 463.297 439.814 494.351C386.77 525.013 297.763 512.434 208.306 481.772C119.299 451.111 29.8425 402.76 6.46693 334.754C-16.9087 266.749 25.7968 179.481 90.9787 110.296C156.61 40.7185 244.269 -10.384 314.395 1.80196C384.522 13.9879 437.117 89.8555 469.483 152.358Z" fill="#F43F5E"/>
<path fill-rule="evenodd" clip-rule="evenodd" d="M169.826 200.989C201.672 200.593 232.293 188.652 256 167.384C279.705 188.656 310.326 200.601 342.174 201C343.384 208.15 344 215.52 344 223.011C344 280.486 307.26 329.381 256 347.498C204.74 329.37 168 280.475 168 223C168 215.498 168.627 208.15 169.826 200.989V200.989ZM296.777 241.777C298.781 239.702 299.889 236.924 299.864 234.04C299.839 231.155 298.682 228.396 296.643 226.357C294.604 224.318 291.845 223.161 288.96 223.136C286.076 223.111 283.298 224.219 281.223 226.223L245 262.446L230.777 248.223C228.702 246.219 225.924 245.111 223.04 245.136C220.155 245.161 217.396 246.318 215.357 248.357C213.318 250.396 212.161 253.155 212.136 256.04C212.111 258.924 213.219 261.702 215.223 263.777L237.223 285.777C239.286 287.839 242.083 288.998 245 288.998C247.917 288.998 250.714 287.839 252.777 285.777L296.777 241.777V241.777Z" fill="white"/>
</svg>
