<svg width="512" height="512" viewBox="0 0 512 512" fill="none" xmlns="http://www.w3.org/2000/svg">
<path d="M418.902 115.716C474.077 175.528 524.092 254.005 509.405 313.393C494.321 372.781 414.535 413.504 335.543 452.531C256.948 491.557 179.147 528.462 123.178 504.283C67.2084 480.528 33.0712 395.688 14.0178 307.03C-5.03555 218.373 -9.40194 125.473 31.4834 69.0544C71.9717 12.2117 157.712 -8.14987 230.353 2.87931C303.391 13.4843 363.726 55.48 418.902 115.716Z" fill="#F43F5E"/>
<path d="M297.519 264.375C296.882 263.56 293.332 259.429 286.224 256.717C280.01 254.794 264.676 249.712 256.204 243.63C256.759 242.897 257.303 242.14 257.831 241.355C264.783 231.012 268.61 217.096 268.61 202.168C268.61 199.713 268.524 197.408 268.365 195.226C283.744 192.149 293.684 187.271 293.684 181.777C293.684 175.487 280.649 170.002 261.338 167.108C260.86 163.989 260.533 160.532 260.533 156.889C260.533 143.143 256.453 132 245.029 132C232.032 132 234.722 147.348 230 147.912C225.279 147.348 227.969 132 214.972 132C203.548 132 199.467 143.143 199.467 156.889C199.467 160.532 199.141 163.989 198.663 167.108C179.351 170.002 166.317 175.487 166.317 181.777C166.317 187.271 176.256 192.149 191.635 195.226C191.477 197.408 191.39 199.713 191.39 202.168C191.39 217.096 195.218 231.012 202.169 241.355C202.697 242.141 203.241 242.897 203.797 243.63C195.325 249.712 179.99 254.794 173.777 256.717C166.669 259.428 163.119 263.559 162.481 264.375C149.409 283.781 147.928 327.32 147.917 327.752C148.034 333.545 149.754 335.526 150.348 335.77C179.163 348.59 213.027 351.936 230 352C246.973 351.936 280.838 348.59 309.652 335.769C310.246 335.525 311.967 333.545 312.083 327.752C312.072 327.32 310.592 283.781 297.519 264.375ZM195.945 171.101C195.862 171.394 195.819 171.691 195.819 171.992C195.819 177.726 211.122 182.374 230 182.374C248.878 182.374 264.182 177.726 264.182 171.992C264.182 171.691 264.138 171.394 264.055 171.101C266.63 172.659 268.081 174.418 268.081 176.282C268.081 182.669 251.032 187.849 230 187.849C208.968 187.849 191.919 182.669 191.919 176.282C191.919 174.418 193.371 172.659 195.945 171.101ZM196.694 202.169C196.694 200.071 196.755 198.073 196.877 196.17C206.528 197.728 217.868 198.626 230 198.626C242.134 198.626 253.472 197.728 263.123 196.17C263.245 198.073 263.307 200.071 263.307 202.169C263.307 230.492 248.676 252.677 230 252.677C211.324 252.677 196.694 230.492 196.694 202.169Z" fill="white"/>
<path d="M227.879 205.507H232.122C232.749 213.727 239.429 220.198 247.582 220.198C255.736 220.198 262.416 213.727 263.044 205.507H263.048V205.444C263.076 205.046 263.095 204.647 263.095 204.241H263.048V201.889H196.905V205.507H196.958C197.585 213.726 204.265 220.198 212.418 220.198C220.571 220.198 227.252 213.727 227.879 205.507Z" fill="white"/>
</svg>
